<svg id="Capa_1" data-name="Capa 1" xmlns="http://www.w3.org/2000/svg" viewBox="0 0 141.93 105.69"><defs><style>.cls-1{fill:#f6f4f8;}.cls-2{fill:#f0edf2;}.cls-3{fill:#2e1e46;}.cls-4{fill:#fdfcfd;}.cls-5{fill:#412853;}.cls-6{fill:#5bc1e0;}</style></defs><path class="cls-1" d="M20.9,46.27c-1,.47-2,1.18-2.93,0-.74-.92-.35-1.81.09-2.69A54,54,0,0,1,24.51,34c-.67-1.56-3.55-.52-3.39-2.82.14-2,2-2.48,3.34-3.31a58.58,58.58,0,0,1,28.41-8.66c1.59-.09,4-1,4.47,1.51.38,2.16-2,2.21-3.43,2.79a82.14,82.14,0,0,0-22.77,13.7A46.2,46.2,0,0,0,20.9,46.27Z" transform="translate(-4.15 -3.3)"/><path class="cls-1" d="M89,92c5-2.54,10.62-3.7,15-7.43,3.58.33,6.14-2.1,9.1-3.43,1.12-.5,2.26-1.51,3.34-.27,1.27,1.46,0,2.59-.93,3.54-8.46,9-19,13.34-31.28,13.63-1.92.05-3.39-.38-2.71-2.83Z" transform="translate(-4.15 -3.3)"/><path class="cls-2" d="M146.09,13a18.57,18.57,0,0,1-1.82,6.33A2,2,0,0,1,142,20.78a1.74,1.74,0,0,1-1.43-2.15c.62-4.89-1.73-8.41-5.17-11.46-.83-.74-1.71-1.53-1.12-2.78.7-1.49,2.06-1.08,3.24-.86C142.59,4.48,146,8.22,146.09,13Z" transform="translate(-4.15 -3.3)"/><path class="cls-3" d="M54.48,87.86c-6.08-1.19-12.2.75-18.11,4.22-3.47,2-7.35,2.6-10.87-.11S22,85.74,22.72,81.87c1.54-8.22,7.42-13.73,13.79-19.09a10.24,10.24,0,0,0,1.78-2.15c.76-1.15,4.19-3.68,5-6.51,3.91-14.59,15.44-20.35,28.33-24.21,10.73-3.22,21.87-4.27,33.07-4.23,4.84,0,9.2-.5,12.22-5.16,1.5-2.32,4.09-3.89,7.18-2.41,3.25,1.55,3.3,4.57,2.81,7.47a41.63,41.63,0,0,1-5.55,15c-4.43,7.28-8.69,14.5-11.25,22.84-2.62,8.57-10.37,12.91-18,16.73C80.54,86,68.08,87.75,54.48,87.86ZM99,58.77c6.86-.14,10.14-5,12.73-10.22,4.36-8.8,1.52-14.92-8.17-16.64-12.73-2.24-24.94.24-36.28,6.35-5.53,3-8.51,7.89-9.23,14.29-.51,4.6,1.13,8.59,2.81,12.67-5.53.72-5.53.72-5.8-4.29-.17-3.06-1.52-3.85-4.27-2.2a25,25,0,0,0-8.65,8.12c-4,6.43-.87,12.73,6.62,13.37A45.45,45.45,0,0,0,71,76.94c10.52-4.56,20.9-9.45,26.28-20.62Z" transform="translate(-4.15 -3.3)"/><path class="cls-4" d="M97.32,56.32C91.94,67.49,81.56,72.38,71,76.94A45.45,45.45,0,0,1,48.8,80.22c-7.49-.64-10.6-6.94-6.62-13.37a25,25,0,0,1,8.65-8.12c2.75-1.65,4.1-.86,4.27,2.2.27,5,.27,5,5.8,4.29-1.68-4.08-3.32-8.07-2.81-12.67.72-6.4,3.7-11.3,9.23-14.29,11.34-6.11,23.55-8.59,36.28-6.35,9.69,1.72,12.53,7.84,8.17,16.64C109.18,53.78,105.9,58.63,99,58.77c-.92-2.56.74-4.8.88-7.24.27-4.8-1.77-6.16-6.51-4C96.9,49.57,97.76,52.68,97.32,56.32Z" transform="translate(-4.15 -3.3)"/><path class="cls-5" d="M97.32,56.32c.44-3.64-.42-6.75-3.91-8.77,4.74-2.18,6.78-.82,6.51,4-.14,2.44-1.8,4.68-.88,7.24Z" transform="translate(-4.15 -3.3)"/><path class="cls-6" d="M32.37,38.12a146.62,146.62,0,0,1,41.21-19.3c-1.45-.82-3.14-.82-3-2.63.12-1.47,1.26-2,2.42-2.52C87.31,7.22,102.05,2.91,118,4c15.16,1.07,22.54,10.86,19,25.57-.21.9-1.5,2.09.16,2.59,1.41.42,1.66-1.11,2.05-2.09s.62-1.82.91-2.73c.45-1.41.61-3.39,2.63-3s1.6,2.35,1.53,3.82c-.68,13.94-6.52,25.66-15.55,36a95.05,95.05,0,0,1-23.68,19.08c-.46.27-1,.39-.9,1.12-4.39,3.72-10,4.89-15,7.43-3.48-.84-6.22,1.27-9.23,2.3-1.11.83-5.59-.94-2.44,3.26.64.85-.35,1.85-1.26,2.27-15.78,7.23-32.15,11.68-49.56,8C14.41,105.09,10.14,97.15,13.23,84.8c.49-2,1.09-3.89,1.67-6-2.12-.34-2.2,1.27-2.74,2.15-1.44,2.34-2.72,4.78-4.05,7.19-.56,1-1.23,2-2.5,1.69s-1.45-1.59-1.46-2.69A46.41,46.41,0,0,1,7.24,70.23,66,66,0,0,1,19.6,49.89c1-1.13,1.82-2.39,2.72-3.59ZM54.61,87.75c13.6-.11,26.06-1.91,37.62-7.73,7.58-3.82,15.33-8.17,18-16.73C112.74,55,117,47.72,121.44,40.45a40.6,40.6,0,0,0,5.15-14.87c.48-2.9.7-5.92-2.55-7.47-3.09-1.48-5.54,0-7.05,2.3-3,4.66-7.28,5.5-12.12,5.49-11.2,0-22.43.68-33.17,3.89C58.82,33.65,47.28,39.41,43.37,54c-1,3.57-6.17,6.66-4.9,7.12-7,5.87-13.93,11.62-15.62,20.62-.72,3.87-.62,7.49,2.78,10.1S33,94,36.51,92C42.41,88.5,48.53,86.56,54.61,87.75Z" transform="translate(-4.15 -3.3)"/></svg>