<svg id="Capa_1" data-name="Capa 1" xmlns="http://www.w3.org/2000/svg" viewBox="0 0 78.45 127.83"><defs><style>.cls-1{fill:#2e1e46;}.cls-2{fill:#f6f4f8;}.cls-3{fill:#f0edf2;}.cls-4{fill:#fdfcfd;}.cls-5{fill:#412853;}.cls-6{fill:#5bc1e0;}</style></defs><path class="cls-1" d="M72.76,133.41S37.55,73.35,33.71,45.17,62.43,5.06,74.1,5.61s39.06,9.94,37.7,37.59S72.76,133.41,72.76,133.41Z" transform="translate(-33.4 -5.59)"/><path class="cls-2" d="M50.26,41.22c-.42.21-.85.51-1.27,0s-.15-.78,0-1.16a22.9,22.9,0,0,1,2.8-4.15c-.3-.67-1.54-.22-1.47-1.22s.87-1.08,1.44-1.44a25.5,25.5,0,0,1,12.32-3.76c.7,0,1.76-.43,1.95.66s-.88,1-1.49,1.21A35.62,35.62,0,0,0,54.7,37.3,20.48,20.48,0,0,0,50.26,41.22Z" transform="translate(-33.4 -5.59)"/><path class="cls-2" d="M79.81,61c2.16-1.1,4.61-1.61,6.51-3.23,1.56.14,2.67-.91,4-1.48.49-.22,1-.66,1.45-.12s0,1.12-.41,1.53a18.41,18.41,0,0,1-13.56,5.92c-.83,0-1.47-.17-1.18-1.23Z" transform="translate(-33.4 -5.59)"/><path class="cls-3" d="M104.55,26.81a8.07,8.07,0,0,1-.78,2.75.87.87,0,0,1-1,.61.75.75,0,0,1-.62-.93c.27-2.12-.75-3.65-2.24-5-.36-.32-.75-.67-.49-1.21s.9-.47,1.41-.37A4.24,4.24,0,0,1,104.55,26.81Z" transform="translate(-33.4 -5.59)"/><path class="cls-1" d="M64.82,59.26c-2.63-.51-5.29.33-7.85,1.83A4,4,0,0,1,52.26,61c-1.48-1.13-1.52-2.7-1.21-4.38.67-3.56,3.22-5.95,6-8.28a4.06,4.06,0,0,0,.77-.93c.33-.5,1.82-1.6,2.15-2.82,1.69-6.33,6.7-8.83,12.29-10.5a49.15,49.15,0,0,1,14.34-1.84c2.1,0,4-.21,5.3-2.23A2.35,2.35,0,0,1,95,29c1.41.67,1.43,2,1.22,3.24a18.11,18.11,0,0,1-2.4,6.5,43.43,43.43,0,0,0-4.88,9.9c-1.14,3.72-4.5,5.6-7.79,7.26C76.13,58.44,70.72,59.21,64.82,59.26ZM84.15,46.65c3-.07,4.4-2.17,5.52-4.44,1.89-3.82.66-6.47-3.54-7.21a23.82,23.82,0,0,0-15.74,2.75,7.58,7.58,0,0,0-4,6.2,11,11,0,0,0,1.22,5.49c-2.4.31-2.4.31-2.52-1.86-.07-1.33-.65-1.67-1.85-.95a10.8,10.8,0,0,0-3.75,3.52c-1.73,2.79-.38,5.52,2.87,5.8A19.71,19.71,0,0,0,72,54.53c4.57-2,9.07-4.1,11.41-9Z" transform="translate(-33.4 -5.59)"/><path class="cls-4" d="M83.41,45.58c-2.34,4.85-6.84,7-11.41,9A19.71,19.71,0,0,1,62.36,56c-3.25-.28-4.6-3-2.87-5.8a10.8,10.8,0,0,1,3.75-3.52c1.2-.72,1.78-.38,1.85.95.12,2.17.12,2.17,2.52,1.86A11,11,0,0,1,66.39,44a7.58,7.58,0,0,1,4-6.2A23.82,23.82,0,0,1,86.13,35c4.2.74,5.43,3.39,3.54,7.21-1.12,2.27-2.55,4.37-5.52,4.44-.4-1.11.32-2.09.38-3.15.12-2.08-.76-2.67-2.82-1.72A3.49,3.49,0,0,1,83.41,45.58Z" transform="translate(-33.4 -5.59)"/><path class="cls-5" d="M83.41,45.58a3.49,3.49,0,0,0-1.7-3.8c2.06-1,2.94-.36,2.82,1.72-.06,1.06-.78,2-.38,3.15Z" transform="translate(-33.4 -5.59)"/><path class="cls-6" d="M55.24,37.69a63.46,63.46,0,0,1,17.87-8.37c-.63-.36-1.36-.36-1.3-1.14s.55-.87,1-1.09c6.2-2.8,12.6-4.67,19.52-4.18,6.58.46,9.78,4.71,8.25,11.08-.1.39-.65.91.07,1.13s.72-.48.89-.91.27-.79.39-1.18c.19-.61.27-1.47,1.14-1.29s.7,1,.66,1.66C103.49,39.44,101,44.52,97,49a41.41,41.41,0,0,1-10.27,8.27c-.2.12-.45.17-.39.48C84.48,59.38,82,59.89,79.87,61c-1.51-.37-2.7.55-4,1-.49.37-2.43-.4-1.06,1.42.28.37-.15.8-.55,1-6.84,3.14-13.94,5.07-21.49,3.48-5.32-1.13-7.17-4.57-5.83-9.93.21-.85.47-1.68.72-2.59-.92-.15-1,.55-1.19.93-.62,1-1.18,2.08-1.76,3.12-.24.44-.53.88-1.08.73S43,59.44,43,59a20.1,20.1,0,0,1,1.34-7.35,28.83,28.83,0,0,1,5.36-8.82c.43-.49.79-1,1.18-1.55Zm9.64,21.52c5.9-.05,11.31-.82,16.32-3.35,3.29-1.66,6.64-3.54,7.78-7.26a43.84,43.84,0,0,1,4.88-9.9,17.59,17.59,0,0,0,2.24-6.45C96.31,31,96.4,29.68,95,29a2.26,2.26,0,0,0-3,1c-1.31,2-3.16,2.39-5.26,2.38a49.08,49.08,0,0,0-14.39,1.69C66.71,35.75,61.7,38.25,60,44.58c-.42,1.55-2.68,2.89-2.13,3.09-3.05,2.54-6,5-6.77,8.94-.32,1.68-.27,3.25,1.2,4.38A4,4,0,0,0,57,61C59.59,59.54,62.24,58.7,64.88,59.21Z" transform="translate(-33.4 -5.59)"/></svg>